<svg width="60" height="60" viewBox="0 0 60 60" fill="none" xmlns="http://www.w3.org/2000/svg">
<rect width="60" height="60" rx="30" fill="#ECF2FF"/>
<path d="M30 30C32.8406 30 35.1429 27.7617 35.1429 25C35.1429 22.2383 32.8406 20 30 20C27.1594 20 24.8571 22.2383 24.8571 25C24.8571 27.7617 27.1594 30 30 30ZM33.6 31.25H32.929C32.0371 31.6484 31.0446 31.875 30 31.875C28.9554 31.875 27.967 31.6484 27.071 31.25H26.4C23.4187 31.25 21 33.6016 21 36.5V38.125C21 39.1602 21.8638 40 22.9286 40H37.0714C38.1362 40 39 39.1602 39 38.125V36.5C39 33.6016 36.5813 31.25 33.6 31.25Z" fill="#0063FD"/>
<path d="M8.00003 60C12.3391 60 16 56.3717 16 51.9972C16 47.6072 12.39 44 8.00003 44C3.61995 44 0 47.62 0 51.9972C0 56.3971 3.61995 60 8.00003 60Z" fill="#0063FD"/>
<path d="M8.00003 57C7.36854 57 6.95871 56.5902 6.95871 55.9614V53.0385H4.04136C3.42522 53.0385 3.00282 52.6259 3.00005 51.9972C2.99453 51.3657 3.41971 50.9559 4.04136 50.9559H6.95871V48.0414C6.95871 47.4252 7.36854 47.0028 8.00003 47.0001C8.62875 46.9944 9.04134 47.4197 9.04134 48.0414V50.9559H11.9614C12.5748 50.9559 13 51.3657 13 51.9972C13 52.6259 12.5748 53.0385 11.9614 53.0385H9.04134V55.9614C9.04134 56.5902 8.62875 57 8.00003 57Z" fill="white"/>
</svg>
