<svg width="60" height="60" viewBox="0 0 60 60" fill="none" xmlns="http://www.w3.org/2000/svg">
<rect width="60" height="60" rx="30" fill="#ECF2FF"/>
<path d="M8.00003 60C12.3391 60 16 56.3717 16 51.9972C16 47.6072 12.39 44 8.00003 44C3.61995 44 0 47.62 0 51.9972C0 56.3971 3.61995 60 8.00003 60Z" fill="#0063FD"/>
<path d="M8.00003 57C7.36854 57 6.95871 56.5902 6.95871 55.9614V53.0385H4.04136C3.42522 53.0385 3.00282 52.6259 3.00005 51.9972C2.99453 51.3657 3.41971 50.9559 4.04136 50.9559H6.95871V48.0414C6.95871 47.4252 7.36854 47.0028 8.00003 47.0001C8.62875 46.9944 9.04134 47.4197 9.04134 48.0414V50.9559H11.9614C12.5748 50.9559 13 51.3657 13 51.9972C13 52.6259 12.5748 53.0385 11.9614 53.0385H9.04134V55.9614C9.04134 56.5902 8.62875 57 8.00003 57Z" fill="white"/>
<path d="M25.7863 35.0253C28.7507 37.9933 32.3396 40.2729 35.2713 40.2729C36.5869 40.2729 37.7418 39.8156 38.6686 38.793C39.2099 38.1913 39.5342 37.4983 39.5342 36.8079C39.5342 36.275 39.3289 35.7621 38.826 35.3971L35.7351 33.2019C35.2486 32.866 34.8478 32.7053 34.4807 32.7053C34.0161 32.7053 33.5988 32.972 33.1295 33.4311L32.4055 34.1487C32.295 34.2592 32.1508 34.3095 32.0202 34.3095C31.8659 34.3095 31.7098 34.2492 31.6076 34.1936C30.9758 33.8512 29.893 32.9209 28.8877 31.9239C27.8907 30.9268 26.9603 29.844 26.6262 29.2122C26.5706 29.1017 26.5103 28.9539 26.5103 28.8014C26.5103 28.669 26.5523 28.533 26.6628 28.4225L27.3886 27.682C27.8396 27.2127 28.1145 26.8037 28.1145 26.3308C28.1145 25.9638 27.9455 25.563 27.6014 25.0764L25.4309 22.0185C25.0613 21.5074 24.5366 21.2874 23.9706 21.2874C23.2932 21.2874 22.6084 21.5851 22.0103 22.1595C21.0125 23.1045 20.5715 24.2759 20.5715 25.5733C20.5715 28.5049 22.8183 32.0691 25.7863 35.0253Z" fill="#0063FD"/>
</svg>
