<svg width="60" height="60" viewBox="0 0 60 60" fill="none" xmlns="http://www.w3.org/2000/svg">
<rect width="60" height="60" rx="30" fill="#ECF2FF"/>
<path d="M8.00003 60C12.3391 60 16 56.3717 16 51.9972C16 47.6072 12.39 44 8.00003 44C3.61995 44 0 47.62 0 51.9972C0 56.3971 3.61995 60 8.00003 60Z" fill="#0063FD"/>
<path d="M8.00003 57C7.36854 57 6.95871 56.5902 6.95871 55.9614V53.0385H4.04136C3.42522 53.0385 3.00282 52.6259 3.00005 51.9972C2.99453 51.3657 3.41971 50.9559 4.04136 50.9559H6.95871V48.0414C6.95871 47.4252 7.36854 47.0028 8.00003 47.0001C8.62875 46.9944 9.04134 47.4197 9.04134 48.0414V50.9559H11.9614C12.5748 50.9559 13 51.3657 13 51.9972C13 52.6259 12.5748 53.0385 11.9614 53.0385H9.04134V55.9614C9.04134 56.5902 8.62875 57 8.00003 57Z" fill="white"/>
<path d="M24.9556 39.8175H36.0007C36.9317 39.8175 37.4929 39.3786 37.4929 38.6467C37.4929 36.5072 34.7831 33.5649 30.4832 33.5649C26.1732 33.5649 23.4634 36.5072 23.4634 38.6467C23.4634 39.3786 24.0247 39.8175 24.9556 39.8175ZM30.4832 32.0956C32.2872 32.0956 33.8258 30.4868 33.8258 28.4086C33.8258 26.3714 32.2854 24.8167 30.4832 24.8167C28.6792 24.8167 27.1287 26.3979 27.1305 28.4251C27.1323 30.4868 28.6774 32.0956 30.4832 32.0956Z" fill="#0063FD"/>
<path d="M18.5864 35.7095H20.6607C21.604 35.7095 22.1043 35.2193 22.1043 34.2878V32.1615C22.1043 31.2364 21.604 30.7462 20.6607 30.7462H18.5864C17.643 30.7462 17.1428 31.2282 17.1428 32.1615V34.2878C17.1428 35.2193 17.643 35.7095 18.5864 35.7095ZM21.3053 28.3596H25.6703C25.6912 25.7139 27.6676 23.5438 30.1617 23.3666V21.9849C30.1617 21.0598 29.6615 20.5714 28.7098 20.5714H21.3053C20.3619 20.5714 19.8617 21.0598 19.8617 21.9849V26.9461C19.8617 27.8795 20.3619 28.3596 21.3053 28.3596ZM37.7856 33.7666H40.8084C41.7601 33.7666 42.2603 33.2783 42.2603 32.3532V26.4067C42.2603 25.4816 41.7601 24.9933 40.8084 24.9933H37.7856C36.844 24.9933 36.3438 25.4816 36.3438 26.4067V32.3532C36.3438 33.2783 36.844 33.7666 37.7856 33.7666Z" fill="#0063FD"/>
</svg>
