<svg width="60" height="60" viewBox="0 0 60 60" fill="none" xmlns="http://www.w3.org/2000/svg">
<rect width="60" height="60" rx="30" fill="#ECF2FF"/>
<path d="M8.00003 60C12.3391 60 16 56.3717 16 51.9972C16 47.6072 12.39 44 8.00003 44C3.61995 44 0 47.62 0 51.9972C0 56.3971 3.61995 60 8.00003 60Z" fill="#0063FD"/>
<path d="M8.00003 57C7.36854 57 6.95871 56.5902 6.95871 55.9614V53.0385H4.04136C3.42522 53.0385 3.00282 52.6259 3.00005 51.9972C2.99453 51.3657 3.41971 50.9559 4.04136 50.9559H6.95871V48.0414C6.95871 47.4252 7.36854 47.0028 8.00003 47.0001C8.62875 46.9944 9.04134 47.4197 9.04134 48.0414V50.9559H11.9614C12.5748 50.9559 13 51.3657 13 51.9972C13 52.6259 12.5748 53.0385 11.9614 53.0385H9.04134V55.9614C9.04134 56.5902 8.62875 57 8.00003 57Z" fill="white"/>
<path d="M32.8875 37.499H27.6195V30.9788C27.6195 30.5095 27.9345 30.2045 28.4038 30.2045H32.1133C32.5826 30.2045 32.8875 30.5095 32.8875 30.9788V37.499ZM21.2478 37.1512C21.2478 38.5944 22.1549 39.4669 23.6417 39.4669H36.8883C38.3751 39.4669 39.2721 38.5944 39.2721 37.1512V29.4978L30.8817 22.4595C30.4909 22.1308 30.0262 22.1391 29.6438 22.4595L21.2478 29.4978V37.1512ZM18 28.1263C18 28.6448 18.3901 29.0871 19.0266 29.0871C19.3385 29.0871 19.6166 28.9257 19.8619 28.7241L29.8388 20.3535C30.1086 20.1147 30.425 20.1147 30.6966 20.3535L40.6682 28.7241C40.907 28.9257 41.185 29.0871 41.497 29.0871C42.074 29.0871 42.5153 28.7289 42.5153 28.151C42.5153 27.8117 42.3842 27.5493 42.1299 27.3324L31.6752 18.5451C30.8162 17.8183 29.7275 17.8183 28.8603 18.5451L18.3937 27.3342C18.1312 27.5529 18 27.8464 18 28.1263ZM36.4689 23.2617L39.3065 25.6497V20.8012C39.3065 20.3483 39.018 20.0599 38.5652 20.0599H37.212C36.7674 20.0599 36.4689 20.3483 36.4689 20.8012V23.2617Z" fill="#0063FD"/>
</svg>
