<svg width="60" height="60" viewBox="0 0 60 60" fill="none" xmlns="http://www.w3.org/2000/svg">
<rect width="60" height="60" rx="30" fill="#ECF2FF"/>
<path d="M8.00003 60C12.3391 60 16 56.3717 16 51.9972C16 47.6072 12.39 44 8.00003 44C3.61995 44 0 47.62 0 51.9972C0 56.3971 3.61995 60 8.00003 60Z" fill="#0063FD"/>
<path d="M8.00003 57C7.36854 57 6.95871 56.5902 6.95871 55.9614V53.0385H4.04136C3.42522 53.0385 3.00282 52.6259 3.00005 51.9972C2.99453 51.3657 3.41971 50.9559 4.04136 50.9559H6.95871V48.0414C6.95871 47.4252 7.36854 47.0028 8.00003 47.0001C8.62875 46.9944 9.04134 47.4197 9.04134 48.0414V50.9559H11.9614C12.5748 50.9559 13 51.3657 13 51.9972C13 52.6259 12.5748 53.0385 11.9614 53.0385H9.04134V55.9614C9.04134 56.5902 8.62875 57 8.00003 57Z" fill="white"/>
<path d="M21.8541 39.8202C22.2757 39.8202 22.5877 39.6229 23.0887 39.1593L25.934 36.5384C25.3806 36.0828 24.895 35.3244 24.895 33.7523V26.7221C24.895 23.5724 26.8284 21.6656 29.9862 21.6656H37.1965L37.1882 21.3572C37.0105 19.3495 35.6725 18.0063 33.2927 18.0063H19.3469C16.9455 18.0063 15.4287 19.4095 15.4287 21.859V31.9091C15.4287 34.3186 16.9238 35.8193 19.2818 35.8193H20.8968V38.7378C20.8968 39.3903 21.2554 39.8202 21.8541 39.8202Z" fill="#0063FD"/>
<path d="M38.7009 41.2554C39.3079 41.2554 39.6564 40.8338 39.6564 40.173V37.2626H40.7066C43.0647 37.2626 44.5597 35.762 44.5597 33.3424V26.9786C44.5597 24.5355 43.0412 23.1341 40.6398 23.1341H30.2733C27.784 23.1341 26.3633 24.5301 26.3633 27.0176V33.3424C26.3633 35.78 27.7876 37.2626 30.2733 37.2626H33.775L37.4644 40.6028C37.9673 41.0564 38.2774 41.2554 38.7009 41.2554Z" fill="#0063FD"/>
</svg>
